<?xml version="1.0" encoding="utf-8"?>
<!-- Generator: Adobe Illustrator 23.0.1, SVG Export Plug-In . SVG Version: 6.00 Build 0)  -->
<svg version="1.1" id="图层_1" xmlns="http://www.w3.org/2000/svg" xmlns:xlink="http://www.w3.org/1999/xlink" x="0px" y="0px"
	 viewBox="0 0 21 468" style="enable-background:new 0 0 21 468;" xml:space="preserve">
<style type="text/css">
	.st0{display:none;}
	.st1{display:inline;}
	.st2{enable-background:new    ;}
</style>
<g id="图层_1_1_" class="st0">
	<title>未标题-1</title>
	<path class="st1" d="M10.5,12h9v9c0.1,1.7-0.6,3.4-1.9,4.5c-1.1,1-2.6,1.5-4.1,1.5h-6c-3.3,0-6-2.7-6-6V6c0-1.6,0.6-3.1,1.8-4.2
		C4.4,0.6,5.9,0,7.5,0h6c3.8,0,5.8,2,6,6h-3c-0.2-2-1.2-3-3-3h-3C9.7,3,9,3.3,8.4,3.9C7.9,4.4,7.5,5.2,7.5,6v15
		c0,0.8,0.3,1.6,0.8,2.1c1.2,1.2,3.1,1.2,4.2,0c0.6-0.6,0.9-1.3,0.9-2.2v-6h-3L10.5,12z"/>
	<path class="st1" d="M1.5,63V36h12c1.6,0,3.1,0.6,4.2,1.8c1.1,1.1,1.8,2.6,1.8,4.2v1.6c0,1.4-0.5,2.8-1.4,3.9
		c-0.9,1.2-2.4,1.8-4.6,1.8h3c0.8,0,1.6,0.3,2.1,0.9c0.6,0.6,0.9,1.3,0.9,2.1V63h-6v-9c0-1.7-1.3-3-3-3h-3v12H1.5z M7.5,48h3
		c1.7,0,3-1.3,3-3v-3c0-1.7-1.3-3-3-3h-3V48z"/>
	<path class="st1" d="M1.5,99V78c0-3.3,2.7-6,6-6h6c1.6,0,3.1,0.6,4.2,1.8c1.1,1.1,1.8,2.6,1.8,4.2v21h-6V87h-6v12H1.5z M7.5,84h6
		v-6c0-1.7-1.3-3-3-3c-0.8,0-1.5,0.3-2.1,0.9s-0.9,1.3-0.9,2.2L7.5,84z"/>
	<path class="st1" d="M1.5,135v-27h12c1.6,0,3.1,0.6,4.2,1.8c1.1,1.1,1.8,2.6,1.8,4.2v3c0,1.6-0.6,3.1-1.8,4.2
		c-1.1,1.2-2.6,1.8-4.2,1.8h-6v12H1.5z M7.5,120h3c1.7,0,3-1.3,3-3v-3c0-1.7-1.3-3-3-3h-3V120z"/>
	<path class="st1" d="M1.5,171v-27h6v12h6v-12h6v27h-6v-12h-6v12H1.5z"/>
	<path class="st1" d="M7.5,207v-27h6v27H7.5z"/>
	<path class="st1" d="M19.5,237c-0.2,4-2.2,6-6,6h-6c-3.3,0-6-2.7-6-6v-15c0-1.6,0.6-3.1,1.8-4.2c1.1-1.2,2.7-1.8,4.3-1.8h6
		c3.8,0,5.8,2,6,6h-3c-0.2-2-1.2-3-3-3h-3c-0.8,0-1.5,0.3-2.1,0.9c-0.6,0.6-0.9,1.3-0.9,2.1v15c0,0.8,0.3,1.6,0.9,2.1
		c0.5,0.6,1.3,0.9,2.1,0.9h3c1.8,0,2.8-1,3-3H19.5z"/>
	<path class="st1" d="M1.5,288v-27h12c1.6,0,3.1,0.6,4.2,1.8c1.1,1.1,1.8,2.6,1.8,4.2v15c0,1.6-0.6,3.1-1.8,4.2
		c-1.1,1.2-2.6,1.8-4.2,1.8H1.5z M7.5,285h3c0.8,0,1.6-0.3,2.1-0.9c0.6-0.6,0.9-1.3,0.9-2.1v-15c0-1.7-1.3-3-3-3h-3V285z"/>
	<path class="st1" d="M3,324v-27h15v3H9v9h6v3H9v9h9v3H3z"/>
	<path class="st1" d="M18,339h-3c-0.3-2-1.2-3-2.8-3c-0.9-0.1-1.7,0.2-2.4,0.8c-0.6,0.6-0.9,1.4-0.8,2.3c0,0.8,0.3,1.5,0.9,2.1
		l6.4,7.1c1.1,1.1,1.7,2.7,1.8,4.2v1.5c0,1.6-0.6,3.1-1.8,4.2c-1.1,1.2-2.6,1.8-4.2,1.8H9c-1.6,0.1-3.3-0.4-4.5-1.5
		c-1.1-1.2-1.6-2.9-1.5-4.5h3v0.5c0,0.7,0.3,1.5,0.9,1.9s1.3,0.7,2.1,0.6c0.8,0.1,1.7-0.2,2.3-0.8c0.5-0.6,0.8-1.4,0.7-2.2
		c0-0.8-0.3-1.5-0.9-2.1l-6.4-7.1c-1.1-1.1-1.7-2.7-1.8-4.2v-1.5c0-3.3,2.7-6,6-6h3C15.8,333,17.8,335,18,339z"/>
	<path class="st1" d="M7.5,396v-27h6v27H7.5z"/>
	<path class="st1" d="M10.5,417h9v9c0.1,1.7-0.6,3.4-1.9,4.5c-1.1,1-2.6,1.5-4.1,1.5h-6c-3.3,0-6-2.7-6-6v-15c0-1.6,0.6-3.1,1.8-4.2
		c1.1-1.2,2.7-1.8,4.3-1.8h6c3.8,0,5.8,2,6,6h-3c-0.2-2-1.2-3-3-3h-3c-0.8,0-1.5,0.3-2.1,0.9s-0.9,1.3-0.9,2.1v15
		c0,0.8,0.3,1.6,0.9,2.1c1.2,1.2,3.1,1.2,4.2,0c0.6-0.6,0.9-1.3,0.9-2.2v-6h-3L10.5,417z"/>
	<path class="st1" d="M0,468v-27h1.4L18,456v-15h3v27h-1.4L3,453v15H0z"/>
</g>
<g id="图层_2_1_">
	<g class="st2">
		<path d="M1.5,2h18v8c0,1.1-0.4,2-1.2,2.8c-0.8,0.8-1.7,1.2-2.8,1.2h-2c-1.1,0-2-0.4-2.8-1.2C9.9,12,9.5,11.1,9.5,10V6h-8V2z
			 M11.5,6v2c0,0.6,0.2,1,0.6,1.4C12.5,9.8,13,10,13.5,10h2c0.6,0,1-0.2,1.4-0.6C17.3,9,17.5,8.5,17.5,8V6H11.5z"/>
		<path d="M1.5,18h18v4h-8v4h8v4h-18v-4h8v-4h-8V18z"/>
		<path d="M19.5,38v4c0,1.1-0.4,2-1.2,2.8c-0.8,0.8-1.7,1.2-2.8,1.2h-10c-1.1,0-2-0.4-2.8-1.2C1.9,44,1.5,43.1,1.5,42v-4
			c0-1.1,0.4-2,1.2-2.8C3.5,34.4,4.4,34,5.5,34h10c1.1,0,2,0.4,2.8,1.2S19.5,36.9,19.5,38z M15.5,38h-10c-0.5,0-1,0.2-1.4,0.6
			C3.7,39,3.5,39.4,3.5,40c0,0.6,0.2,1,0.6,1.4C4.5,41.8,5,42,5.5,42h10c0.6,0,1-0.2,1.4-0.6c0.4-0.4,0.6-0.9,0.6-1.4
			c0-0.5-0.2-1-0.6-1.4C16.6,38.2,16.1,38,15.5,38z"/>
		<path d="M1.5,52h16v-4h2v12h-2v-4h-16V52z"/>
		<path d="M19.5,66v4c0,1.1-0.4,2-1.2,2.8c-0.8,0.8-1.7,1.2-2.8,1.2h-10c-1.1,0-2-0.4-2.8-1.2C1.9,72,1.5,71.1,1.5,70v-4
			c0-1.1,0.4-2,1.2-2.8C3.5,62.4,4.4,62,5.5,62h10c1.1,0,2,0.4,2.8,1.2S19.5,64.9,19.5,66z M15.5,66h-10c-0.5,0-1,0.2-1.4,0.6
			C3.7,67,3.5,67.5,3.5,68c0,0.6,0.2,1,0.6,1.4C4.5,69.8,5,70,5.5,70h10c0.6,0,1-0.2,1.4-0.6c0.4-0.4,0.6-0.9,0.6-1.4
			c0-0.5-0.2-1-0.6-1.4C16.6,66.2,16.1,66,15.5,66z"/>
		<path d="M11.5,84v6h-6c-1.3,0-2.3-0.4-3-1.3c-0.7-0.8-1-1.8-1-2.7v-4c0-1.1,0.4-2,1.2-2.8C3.5,78.4,4.4,78,5.5,78h10
			c1.1,0,2,0.4,2.8,1.2c0.8,0.8,1.2,1.7,1.2,2.8v4c0,2.5-1.3,3.8-4,4v-2c1.3-0.2,2-0.8,2-2v-2c0-0.5-0.2-1-0.6-1.4
			c-0.4-0.4-0.9-0.6-1.4-0.6h-10c-0.6,0-1,0.2-1.4,0.6C3.7,83,3.5,83.5,3.5,84c0.1,1.3,0.7,2,2,2h4v-2H11.5z"/>
		<path d="M1.5,94h18v8c0,1.1-0.4,2-1.2,2.8c-0.8,0.8-1.7,1.2-2.8,1.2h-1.1c-0.9,0-1.8-0.3-2.6-0.9c-0.8-0.6-1.2-1.6-1.2-3.1v2
			c0,0.5-0.2,1-0.6,1.4c-0.4,0.4-0.9,0.6-1.4,0.6H1.5v-4h6c0.5,0,1-0.2,1.4-0.6c0.4-0.4,0.6-0.9,0.6-1.4v-2h-8V94z M11.5,98v2
			c0,0.6,0.2,1,0.6,1.4c0.4,0.4,0.9,0.6,1.4,0.6h2c0.6,0,1-0.2,1.4-0.6c0.4-0.4,0.6-0.9,0.6-1.4v-2H11.5z"/>
		<path d="M1.5,110h14c1.1,0,2,0.4,2.8,1.2s1.2,1.7,1.2,2.8v4c0,1.1-0.4,2-1.2,2.8c-0.8,0.8-1.7,1.2-2.8,1.2h-14v-4h8v-4h-8V110z
			 M11.5,114v4h4c0.6,0,1-0.2,1.4-0.6c0.4-0.4,0.6-0.9,0.6-1.4c0-0.5-0.2-1-0.6-1.4c-0.4-0.4-0.9-0.6-1.4-0.6H11.5z"/>
		<path d="M1.5,126h18v8c0,1.1-0.4,2-1.2,2.8c-0.8,0.8-1.7,1.2-2.8,1.2h-2c-1.1,0-2-0.4-2.8-1.2c-0.8-0.8-1.2-1.7-1.2-2.8v-4h-8V126
			z M11.5,130v2c0,0.6,0.2,1,0.6,1.4c0.4,0.4,0.9,0.6,1.4,0.6h2c0.6,0,1-0.2,1.4-0.6c0.4-0.4,0.6-0.9,0.6-1.4v-2H11.5z"/>
		<path d="M1.5,142h18v4h-8v4h8v4h-18v-4h8v-4h-8V142z"/>
		<path d="M1.5,162h8c0.3-2.7,1.7-4,4-4h6v4h-6c-0.5,0-1,0.2-1.4,0.6c-0.4,0.4-0.6,0.9-0.6,1.4c0,0.6,0.2,1,0.6,1.4
			c0.4,0.4,0.9,0.6,1.4,0.6h6v4h-6c-2.4,0-3.7-1.3-4-4h-8V162z"/>
	</g>
</g>
</svg>
