<svg xmlns="http://www.w3.org/2000/svg" viewBox="0 0 267.66 33.37"><title>资源 11</title><g id="图层_2" data-name="图层 2"><g id="图层_1-2" data-name="图层 1"><path d="M216.3,7.36h7.28V28.85c5.21,1.21,7.66-.49,7.4-5.39-.29-5.3-.07-10.63-.07-16.08h7.7c-.27,5.76,0,11.54-1,17.09-.92,5.24-6.35,8.68-12,8.64-3.46,0-6.93-.61-10.39-.6-3.8,0-7.6.42-11.41.63a20.29,20.29,0,0,1-2.24-.13V7.4H209V28.9c5.68,1,7.3-.29,7.31-5.51Z"/><path d="M157.22,7.24v-7h7.26v33c-2.5-.55-5.28,1.15-7.68-1.28-3.13,2-6.7,1.8-10.14.35a6.61,6.61,0,0,1-4.08-6.59c0-3.66,0-7.32,0-11A7.26,7.26,0,0,1,150,7.25C152.34,7.19,154.66,7.24,157.22,7.24Zm.05,3.91h-2.35c-3.71,0-4.86,1.16-4.87,4.93,0,3.08,0,6.16,0,9.24a3.75,3.75,0,0,0,3.43,3.89,3.58,3.58,0,0,0,3.74-3.56C157.36,20.92,157.27,16.19,157.27,11.15Z"/><path d="M95.15,20.15c0,2,.07,4,0,6a7.23,7.23,0,0,1-7.1,7q-3.87.13-7.74,0A7.28,7.28,0,0,1,73.1,26c-.08-3.83-.07-7.67,0-11.5A7.22,7.22,0,0,1,80,7.27c2.74-.14,5.5-.13,8.24,0a7.11,7.11,0,0,1,6.92,7.13C95.21,16.31,95.15,18.23,95.15,20.15Zm-14.59,0h0c0,1.67,0,3.34,0,5,.06,2.35,1.55,4,3.54,4a3.66,3.66,0,0,0,3.65-3.69c.12-3.58.12-7.17,0-10.75a3.58,3.58,0,0,0-3.68-3.62,3.65,3.65,0,0,0-3.5,3.77C80.51,16.68,80.56,18.43,80.56,20.18Z"/><path d="M194.15,20.2c0,1.92.06,3.83,0,5.75a7.27,7.27,0,0,1-7.41,7.19c-2.42,0-4.83.06-7.25,0a7.33,7.33,0,0,1-7.39-7.49c0-3.66-.05-7.33,0-11a7.26,7.26,0,0,1,7.19-7.41c2.58-.09,5.17-.09,7.75,0a7.12,7.12,0,0,1,7.11,7.19C194.21,16.37,194.15,18.29,194.15,20.2Zm-14.6-.14c0,1.75,0,3.51,0,5.25a3.77,3.77,0,0,0,3.43,3.9,3.59,3.59,0,0,0,3.74-3.57c.14-3.66.14-7.33,0-11a3.53,3.53,0,0,0-3.79-3.49c-1.92.1-3.31,1.67-3.37,3.91C179.52,16.73,179.56,18.4,179.55,20.06Z"/><path d="M267.59,33.05H260.3V19.82c0-1.5,0-3,0-4.49-.09-2.6-1.5-4.18-3.65-4.17s-3.56,1.66-3.57,4.22c0,5.81,0,11.63,0,17.61h-7.26V7.2c2.57.6,5.37-1.18,7.66,1.23,3.54-1.85,7.4-2.07,10.87.19a7.43,7.43,0,0,1,3.12,5C267.81,20,267.59,26.39,267.59,33.05Z"/><path d="M.2,25.69H3.59C5.14,29,6.55,29.84,9,29c2.25-.75,2.78-2.91.9-4.34a62.56,62.56,0,0,0-5.68-3.59C.53,18.89-.67,16.27.35,12.62c.93-3.36,3.8-5.36,7.75-5.38a33.22,33.22,0,0,1,4.24.1c4.1.5,6,2.81,6,7.22-1.72.11-3.39.8-4.32-1.77-.75-2.08-4.23-2.28-5.75-.6-1,1.14-1,2.33.25,3.22A64.56,64.56,0,0,0,13.94,19c4,2.36,5.38,4.92,4.37,8.71-.93,3.5-3.89,5.48-8.21,5.48a36,36,0,0,1-3.75-.07C2,32.62.11,30.39.2,25.69Z"/><path d="M43.79,14.61c-1.73.05-3.45.72-4.36-1.85-.3-.84-2.5-1.7-3.49-1.4a4.48,4.48,0,0,0-2.74,3,65.58,65.58,0,0,0,0,11.47A4.51,4.51,0,0,0,35.85,29c1,.34,2.81-.41,3.59-1.28,1.78-2,1.61-2.15,4.24-1.91.46,3.61-1.19,6.35-4.64,7a25.38,25.38,0,0,1-7.43.26,7.08,7.08,0,0,1-6-7.21q-.07-5.62,0-11.24a7.14,7.14,0,0,1,6.34-7.18,27,27,0,0,1,6.47.14C42.21,8,44,10.43,43.79,14.61Z"/><path d="M58.28,33.08h-7V7.45h7.17v3.87c1.61-1.26,3-2.9,4.72-3.56s4-.47,6.24-.66v7.59c-2.16,0-4.29,0-6.42,0-3,0-4.4,1.47-4.43,4.45,0,4.42,0,8.83,0,13.24A3.18,3.18,0,0,1,58.28,33.08Z"/><path d="M109.9,33.08h-7.12V.23h7.12Z"/><path d="M117.23,0h7.14V33h-7.14Z"/></g></g></svg>